<svg xmlns="http://www.w3.org/2000/svg" viewBox="0 0 616 582" fill="#fff">
    <path
        d="M231.15,472c-8.78-.34-17.31,2.68-25.85,5.28-22.88,7-45.21,15.54-67.76,23.49-13.93,4.91-27.8,10-41.7,15a38.08,38.08,0,0,1-22.34,1.53C59,513.67,51.57,501,53.29,486.85c1.06-8.74,4.72-16.78,7.48-25,10.41-31.13,21.78-61.91,32.87-92.8,7.33-20.44,8.61-41.24,1.41-62.13-4.29-12.45-11.48-23.15-19.47-33.46-19-24.47-38.7-48.32-58-72.5C12,194,7.73,186.49,6.45,177.56c-1.76-12.28,2.77-21.85,12.77-28.9,6.75-4.75,14.56-6.72,22.57-8.13,13.74-2.43,27.64-2.83,41.53-3.54,12.3-.63,24.59-1.53,36.89-2.33,11.38-.74,22.74-1.75,34.11-2.59,27.4-2,52.41-10.22,74.06-27.59C241.73,93.76,252.9,81,263,67.32c11-14.86,22.38-29.42,33.9-43.87A68.49,68.49,0,0,1,315.2,7.33c4.87-2.95,10.11-4.72,15.9-4.05,7.45.87,12.6,5.18,16.57,11.22,7,10.62,12.24,22.09,16.85,33.88,5.88,15,9.9,30.66,15,45.95,8,23.9,19.7,45.58,37.46,63.72,18.27,18.66,40.18,31.55,64.94,39.21,31.4,9.72,61.73,22.17,92.11,34.54,9.48,3.87,18.06,8.7,24.84,16.53,11.89,13.74,9.8,31.34-5,41.86-8.74,6.2-18.49,10.45-28.19,14.81-29.48,13.23-59,26.34-88.47,39.64-15.68,7.08-28.83,17.21-37.38,32.54-6.84,12.25-9.26,25.6-9.08,39.43.49,37.24-.29,74.47-1.17,111.7A71.65,71.65,0,0,1,424.12,554c-7.06,17.14-20.21,23.8-38.14,19.19-14.35-3.7-26.79-11.12-38.38-20.14-10.15-7.9-19.41-16.78-28.61-25.71-11.18-10.85-22.08-22-34.14-31.9-10-8.14-20.11-16.17-32.71-20.13A70.83,70.83,0,0,0,243,473,63,63,0,0,0,231.15,472Z" />
</svg>