<svg xmlns="http://www.w3.org/2000/svg" viewBox="0 0 813 796" fill="#fff">
    <path d="M133.82,713.23c1.66-10,4-24.78,6.6-39.53Q152.92,601.83,165.5,530c2.33-13.42-2.17-24.51-11.83-33.85Q89.88,434.44,26.22,372.62C-3,344.07-.46,298.91,31.34,273.82c12-9.47,26.1-12.67,40.79-14.78,55.57-8,111.09-16.24,166.63-24.39,13.88-2,23.78-9.14,30-22Q307.2,133.84,346,55.19C356.5,33.91,373.34,20.94,397,17.94c29-3.69,54.22,10.13,67.29,36.46,14.44,29.1,28.66,58.31,43,87.47,11.67,23.78,23.41,47.52,35,71.35,5.93,12.21,15.41,19.31,28.83,21.28q80.1,11.73,160.19,23.51c6.1.89,12.22,1.66,18.27,2.82,25.9,5,44.09,19.63,52.19,44.79,8.2,25.47,1.71,48.17-17.13,66.94-27.15,27.05-54.67,53.74-82,80.57q-22.84,22.41-45.72,44.78c-8.49,8.3-12,18.34-10.07,30,6.83,40.91,13.84,81.78,20.76,122.68,3.31,19.54,7.11,39,9.72,58.65,3.47,26.11-7,46.9-27.91,61.8-20.45,14.55-42.64,15.82-65.14,4q-79.92-41.85-159.76-83.83c-13-6.87-25.54-6.41-38.15.28q-78.81,41.82-157.54,83.76C186.3,797.87,133.59,766.15,133.82,713.23Z" />
</svg>