<svg
  width="24"
  height="24"
  viewBox="0 0 24 24"
  fill="#fff"
  xmlns="http://www.w3.org/2000/svg"
>
<path d="M14.9,3.4H5.3c-2.2,0-4,1.8-4,4c0,0,0,0,0,0v1.2h4.4v11.6h4.7V8.6h2.7c1,0,1.9-0.8,1.9-1.9L14.9,3.4L14.9,3.4z"
	/>
<path d="M20,20.6c1.5,0,2.7-1.3,2.7-2.8c0-1.5-1.2-2.7-2.7-2.7c-1.5,0-2.7,1.2-2.7,2.7C17.3,19.4,18.5,20.6,20,20.6
	C20,20.6,20,20.6,20,20.6z"/>
<path d="M22.7,7.4v5.8h-3.3c-1,0-1.9-0.8-1.9-1.9c0,0,0,0,0,0V3.4h1.1C20.8,3.4,22.6,5.2,22.7,7.4
	C22.7,7.4,22.7,7.4,22.7,7.4z"/>
</svg>