<svg xmlns="http://www.w3.org/2000/svg" width="800" height="138" fill="#fff" xml:space="preserve"><path d="M43.714 44.202c12.974 0 23.79 6.668 28.827 13.874V46.002h19.816v90.08H78.899a6.355 6.355 0 0 1-6.358-6.357v-5.705c-5.037 7.2-15.853 13.863-28.827 13.863-24.674 0-43.417-21.074-43.417-46.838S19.04 44.202 43.714 44.202m3.605 18.019c-16.037 0-26.848 12.608-26.848 28.824 0 16.211 10.811 28.827 26.848 28.827 16.032 0 26.848-12.616 26.848-28.827 0-16.216-10.815-28.824-26.848-28.824M114.863 46.005h19.821v12.25c5.4-9.005 15.674-14.05 27.385-14.05 20.895 0 34.411 14.773 34.411 37.655v54.222h-13.463a6.359 6.359 0 0 1-6.358-6.357V85.103c0-14.231-7.21-22.879-18.732-22.879-13.153 0-23.242 10.269-23.242 29.542v44.316h-13.469a6.358 6.358 0 0 1-6.353-6.357v-83.72zM255.575 44.202c12.969 0 23.785 6.668 28.827 13.874V.967h19.811v135.115h-13.458a6.355 6.355 0 0 1-6.353-6.357v-5.705c-5.042 7.2-15.858 13.863-28.827 13.863-24.685 0-43.421-21.074-43.421-46.838s18.737-46.843 43.421-46.843m3.606 18.019c-16.032 0-26.843 12.608-26.843 28.824 0 16.211 10.811 28.827 26.843 28.827 16.026 0 26.837-12.616 26.837-28.827 0-16.216-10.811-28.824-26.837-28.824M326.724 46.005h19.816v16.034c3.421-10.269 13.511-16.934 23.784-16.934 2.516 0 5.047.182 7.748.721v20.356c-3.432-1.082-6.305-1.621-9.905-1.621-11.353 0-21.626 9.553-21.626 27.568v43.953h-13.463a6.358 6.358 0 0 1-6.353-6.357v-83.72zM431.504 137.883c-26.658 0-47.2-20.722-47.2-46.833 0-26.124 20.542-46.848 47.2-46.848 26.669 0 47.201 20.719 47.201 46.848 0 26.111-20.532 46.833-47.201 46.833m0-18.369c15.854 0 27.027-12.437 27.027-28.464 0-16.031-11.174-28.468-27.027-28.468-16.031 0-27.2 12.437-27.2 28.468 0 16.027 11.169 28.464 27.2 28.464M504.674 26.37c-7.205 0-13.332-5.939-13.332-13.334 0-7.206 6.127-13.15 13.332-13.15 7.384 0 13.152 5.945 13.152 13.15 0 7.395-5.768 13.334-13.152 13.334m-9.901 19.632h19.811v90.08h-13.458a6.358 6.358 0 0 1-6.353-6.357V46.002zM574.285 44.202c12.974 0 23.785 6.668 28.832 13.874V.967h19.816v135.115h-13.458a6.351 6.351 0 0 1-6.358-6.357v-5.705c-5.047 7.2-15.858 13.863-28.832 13.863-24.674 0-43.411-21.074-43.411-46.838s18.737-46.843 43.411-46.843m3.606 18.019c-16.026 0-26.837 12.608-26.837 28.824 0 16.211 10.811 28.827 26.837 28.827 16.037 0 26.848-12.616 26.848-28.827-.001-16.216-10.811-28.824-26.848-28.824M657.387 57.463h-19.39V45.51h19.39V20.323h12.679V45.51h26.453v11.953h-26.453v52.361c0 11.048 4.896 15.395 15.037 15.395 3.621 0 8.517-.726 11.416-1.989v11.411c-4.174 1.632-8.516 2.357-13.41 2.357-15.396 0-25.722-8.884-25.722-26.095v-53.44zM799.604 45.507l-42.389 90.586h-9.964l-42.396-90.586h14.132l33.154 71.923 33.153-71.923z"/></svg>