<?xml version="1.0" encoding="utf-8"?>
<!-- Generator: Adobe Illustrator 26.0.2, SVG Export Plug-In . SVG Version: 6.00 Build 0)  -->
<svg version="1.1" id="Capa_1" xmlns="http://www.w3.org/2000/svg" xmlns:xlink="http://www.w3.org/1999/xlink" x="0px" y="0px"
	 width="358px" height="251px" viewBox="0 0 358 251" style="enable-background:new 0 0 358 251;" xml:space="preserve">
<style type="text/css">
	.st0{fill:#FEFEFE;}
	.st1{fill:#2D3276;}
	.st2{fill:#009EE2;}
</style>
<g id="Capa_2_00000090287558676921870740000009250049588118554519_">
	<g id="Capa_1-2">
		<path class="st1" d="M176.8,245.9c-36.1-0.4-72.4-6-106.2-22.9c-22.1-11.1-41.2-25.9-54.1-47.4c-22-36.9-22.4-89.4,24.1-125.7
			c25.1-19.6,53.7-31.3,84.6-37.3c52.1-10.1,103-6.5,152.2,14.5c19.5,8.2,37.2,20.3,52,35.5c35,36.3,29.6,91.1,2.9,123.9
			c-19.3,23.7-44.6,38-73.1,47.3C232.8,242.5,205.6,245.7,176.8,245.9z"/>
		<path class="st2" d="M173.9,226c-33-0.3-69.1-6.9-102.7-24c-21.4-10.9-40-25.2-52.2-46.5c-6.7-11.5-10.1-24.7-9.8-38.1
			c0-2-0.6-4.6,3.3-3.7c21.1,4.8,42.2,9.5,61.8,19c1.8,0.9,3.5,2,5.2,2.9s2.5,2.1,2,4.4c-2,11.2,5.1,20.2,16.5,20.6
			c2.5,0.1,3.3,0.7,4.2,2.9c3.3,7.9,9.5,12.2,18.2,12.4c2.1-0.1,4.1,0.9,5.3,2.7c4.5,5.8,10.5,8.7,17.8,7.7c2.4-0.3,3.2,0.5,4.3,2.1
			c7.3,10.3,18.7,12.5,29.2,5.3c2.2-1.5,3.7-1.2,5.8-0.2c6.6,3.1,14,5.4,20.7,2c5.7-2.8,11.8-4.7,18.1-5.6c5-1,9.3-4.3,11.4-9
			c1.1-2.3,2.3-3,4.8-3.1c9.9-0.2,16.6-5.5,19-15c0.5-1.8,1-2.4,3-2.3c11.8,0.5,23.1-9.9,17.9-22.6c-1.4-3.5,2.2-3.2,3.8-3.8
			c18-7,36.4-12.7,55.2-17.3c10.6-2.6,10.9-2.5,9.9,8.5c-1.5,17.9-9.4,33.1-21.3,46.3c-19.4,21.3-44.1,34.1-71,42.7
			C229.7,222.4,204.2,225.9,173.9,226z"/>
		<path class="st0" d="M135.2,64.5c-6.1,6.5-11.3,11.9-16.4,17.4c-5.5,5.9-4.6,11.2,2.9,14.5c9.5,4.1,19.1,4.6,28.2-1.2
			c3.8-2.4,7.4-5.1,11-7.8c4.3-3.4,8.9-6.4,13.6-9.2c8.4-4.8,16.5-4.4,24.4,1.1c8.5,5.9,16.3,12.6,24.2,19.3
			c14.7,12.3,29.2,24.7,43.8,37.1c5.9,5,7,10.3,3.2,14.5c-4.4,4.9-12,5.3-16.8,0.9c-0.1,0-0.1-0.1-0.2-0.2
			c-7.3-6.4-14.5-12.8-21.8-19.1c-1.1-1-2.3-1.9-3.5-2.8c-1-0.7-2.1-1.1-3.1,0c-1,1.1-0.5,2.2,0.3,3.1c0.9,1,1.8,2,2.8,2.9
			c6.2,6.1,12.3,12.2,18.5,18.3c5.4,5.4,5.9,9.4,1.9,13.8c-4.9,5.2-12.6,6-17.4,1.6c-5.3-4.9-10.4-9.8-15.7-14.7
			c-1-0.9-2-1.8-3.1-2.5c-1.1-0.8-2.5-1.5-3.6-0.2s-0.2,2.5,0.7,3.5c0.5,0.6,1.1,1.2,1.7,1.8l12.1,13.3c5,5.5,5.4,7.9,2,11.4
			c-4.2,4.1-10.9,4.3-15.3,0.4c-4.8-4.4-9.5-8.8-14.4-13.2c-1.2-1.1-2.7-2.5-4.3-0.6c-1.3,1.6,0.1,2.8,1.1,3.9
			c3.9,4.3,7.8,8.6,11.9,12.8c2.1,2.1,1.5,3.4-0.9,4.4c-6.2,2.6-12.1,1-17.8-1.6c-1.8-0.8-1.1-2-0.8-3.3
			c2.8-13.3-3.2-22.8-16.4-25.3c-2.7-0.5-3.3-1.7-3.6-4.1c-1.4-11.4-10-17.9-21.4-16.2c-2.2,0.3-3.4,0.2-5-1.7
			c-5.7-6.7-15.1-8.8-23.1-5.3c-2.3,1-3.7,1.4-6-0.5c-5.9-5-13.2-5.2-20-1.1c-1.6,0.9-2.7,2-4.8,0.7c-18.5-11.1-39.2-16.2-59.9-21.3
			c-0.2,0-0.3,0-0.5-0.1c-15.2-4.4-14.9,0-8.3-16.9C21.2,77.4,31.9,65.9,44,55.7c2-1.7,3.6-1.5,5.9-0.7
			c14.8,5.7,29.9,10.2,45.4,13.5c9.6,2,19.1,2.1,28.6-1C127,66.3,130.4,65.7,135.2,64.5z"/>
		<path class="st0" d="M186.9,49.2c10.9,0.4,21.7,3,31.6,7.7c30,14.2,60.1,13.6,90.3,0.6c3.2-1.4,5-0.9,7.4,1.2
			C329.6,70.9,340,85,345,102.8c0.9,3.4,0.6,4.7-3.3,5.6c-22.6,5-44.6,12-65.9,21c-3,1.3-4.6,0.7-6.9-1.2
			c-18.8-15.9-37.6-31.7-56.5-47.5c-2.9-2.4-6.1-4.6-9.2-6.9c-11.3-8.5-22.8-8.2-34.2-0.5c-6.8,4.5-13.1,9.6-19.7,14.5
			c-6.9,5.1-14.5,6.5-22.7,3.9c-4.6-1.5-4.9-2.8-1.5-6.3c6.5-6.9,12.8-14,19.9-20.3C157.1,54,169.8,49.2,186.9,49.2z"/>
		<path class="st2" d="M53.3,49.2c62.1-45.7,185.1-48.5,252.8,2c-8,3.9-16.2,6.1-24.5,7.8c-20.8,4.3-40.5,0.5-59.7-8
			c-22.4-9.9-45.3-12.6-67.7-0.7c-7.4,3.9-14.6,7.4-22.9,8.2c-2.6,0.4-5.2,1-7.7,1.9c-8.2,2.8-17,3.4-25.5,1.6
			C82.9,58.9,67.9,54.6,53.3,49.2z"/>
		<path class="st0" d="M109.3,144.7c4.3-5.9,9.3-9.6,16.7-8.2c4.9,0.9,8.2,3.7,9.1,8.7c0.5,2.6,1,3.6,3.8,1.8
			c5.3-3.5,10.8-3.4,15.2,0.1c4.6,3.6,4.7,8.5,3.6,13.6c-1.2,5.7-1.3,5.7,4.3,4.4c7.4-1.7,14.8,2.9,16.5,10.3c0,0.1,0,0.2,0.1,0.2
			c1.3,7.1-3.3,13.9-10.3,15.4c-7.7,1.8-15.1-2.7-16.5-10.5c-0.7-3.9-1.4-4.9-5.2-2.3c-6.7,4.7-16.3,0-17.2-8.2
			c-0.3-2.4,0-3.9-3.3-2.4c-9.9,4.5-19-1.5-18.9-12.4c0-3.2,0.6-5.4-3.8-2.6c-5.3,3.5-12.1,1.2-14.9-4.4c-2.5-5.2-0.3-11.4,4.9-13.8
			c0.2-0.1,0.4-0.2,0.6-0.3c5.3-2.3,11.5,0.3,13.8,5.6c0.1,0.3,0.2,0.6,0.3,0.9C108.6,141.9,109,143.3,109.3,144.7z"/>
	</g>
</g>
</svg>
