<?xml version="1.0" encoding="utf-8"?>
<!-- Generator: Adobe Illustrator 26.0.2, SVG Export Plug-In . SVG Version: 6.00 Build 0)  -->
<svg version="1.1" id="Capa_1" xmlns="http://www.w3.org/2000/svg" xmlns:xlink="http://www.w3.org/1999/xlink" x="0px" y="0px"
	 width="409.7px" height="409.7px" viewBox="0 0 409.7 409.7" style="enable-background:new 0 0 409.7 409.7;" xml:space="preserve"
	>
<style type="text/css">
	.st0{fill:transparent;}
	.st1{fill:#0084CB;}
	.st2{fill:#002986;}
	.st3{fill:#00186A;}
</style>
<g id="Capa_2_00000046314408384209307140000010950926442964713662_">
	<g id="Capa_1-2">
		<path class="st1" d="M343.5,106.9c16.6,11.7,27.6,27.6,30.7,47.5c6.3,40.7-7.3,75.2-36.2,103.8c-16.6,16.5-36.9,26.6-59.6,31.4
			c-11.1,2.4-22.4,3.2-33.7,2.6c-16.9-0.9-29.8,9.4-32.4,28.5c-2.8,19.9-6.5,39.7-9.8,59.5c-0.6,3.5-1.6,7-1.9,10.5
			c-0.6,9-4.6,15.4-13,19h-55.9c-3.5-1.8-7.1-3.4-9.5-6.7c-2.9-4-4-9.1-3-13.9c2-11.8,4.1-23.6,6.1-35.4c0.1-0.7,0.1-1.3,0-2
			c-0.9-1-0.7-2.2-0.5-3.4c6.1-33.2,11.4-66.5,17-99.8c0.5-2.7,0.9-5.5,2.2-8c4.6-9.3,12.7-12.8,22.5-12.9c13.3-0.2,26.6-0.2,39.9,0
			c18.4,0.2,35.9-3.9,52.7-10.9c16.6-6.9,31.7-17.1,44.2-30c19.6-20.3,32.4-44.2,37.4-72.2C341.3,111.7,341.2,108.8,343.5,106.9z"/>
		<path class="st2" d="M145.2,240.3c-2.8,7.5-3.3,15.5-4.6,23.3c-3.5,19.7-6.7,39.4-10,59.1c-1.6,9.6-3.4,19.2-5.2,28.9
			c-4.9,8.2-12.1,11.4-21.6,11.2c-16.1-0.4-32.2-0.5-48.3,0C41,363.1,32.9,350.6,35,339.1c5.6-31.1,10.6-62.3,15.8-93.5
			c6-35.6,12-71.2,17.9-106.8S80.6,67.7,86.6,32.4c0.9-5.4,1.7-10.8,2.8-16.1C91,7.4,98.8,1,107.8,1c50-0.1,100-0.5,150,0.2
			c41.4,0.6,75.7,29.6,84.4,69.8c2.5,11.7,2.3,23.5,0.9,35.3c-1.9,0.6-3.3-0.6-4.8-1.5c-13.1-8.4-27.7-11.6-42.9-11.6
			c-33.4-0.2-66.8-0.1-100.1,0c-5.7,0-11.5,0.5-16.6,3.5c-7.3,4.5-11,11.2-12.3,19.6c-2.7,17.5-6,34.9-8.8,52.3
			c-3.5,21.5-7.2,43-10.8,64.5C146.5,235.6,144.9,237.7,145.2,240.3z"/>
		<path class="st3" d="M145.2,240.3c-1.1-4.4,0.7-8.5,1.4-12.7c3.4-21.4,7-42.7,10.7-64c3.1-17.8,5.5-35.7,9.5-53.4
			c1.9-8.7,10.5-16.1,19.2-17.5c4.2-0.6,8.5-0.9,12.7-0.8c29.8,0,59.6,0.3,89.4-0.1c19.8-0.2,38.5,2.9,55.1,14.5
			c0.2,0.1,0.3,0.4,0.3,0.6c-2.7,15.6-6.7,30.7-14,44.9c-8.8,17.4-21,32.7-36,45.1c-18.3,15.1-40.2,25.2-63.5,29.5
			c-9,1.6-18.2,2.3-27.3,2.2c-12.4-0.1-24.7-0.1-37.1,0C156.7,228.6,149.6,232.1,145.2,240.3z"/>
	</g>
</g>
</svg>
